Coordinates
version=1
nRows=11
nColumns=63
inDegrees=yes

Units are S.I. units (second, meters, Newtons, ...)
If the header above contains a line with 'inDegrees', this indicates whether rotational values are in degrees (yes) or radians (no).

endheader
time	pelvis_tilt	pelvis_list	pelvis_rotation	pelvis_tx	pelvis_ty	pelvis_tz	hip_flexion_r	hip_adduction_r	hip_rotation_r	knee_angle_r	knee_angle_r_beta	ankle_angle_r	subtalar_angle_r	mtp_angle_r	hip_flexion_l	hip_adduction_l	hip_rotation_l	knee_angle_l	knee_angle_l_beta	ankle_angle_l	subtalar_angle_l	mtp_angle_l	L5_S1_Flex_Ext	L5_S1_Lat_Bending	L5_S1_axial_rotation	L4_L5_Flex_Ext	L4_L5_Lat_Bending	L4_L5_axial_rotation	L3_L4_Flex_Ext	L3_L4_Lat_Bending	L3_L4_axial_rotation	L2_L3_Flex_Ext	L2_L3_Lat_Bending	L2_L3_axial_rotation	L1_L2_Flex_Ext	L1_L2_Lat_Bending	L1_L2_axial_rotation	L1_T12_Flex_Ext	L1_T12_Lat_Bending	L1_T12_axial_rotation	Abs_r3	Abs_r2	Abs_r1	Abs_t1	Abs_t2	neck_flexion	neck_bending	neck_rotation	arm_flex_r	arm_add_r	arm_rot_r	elbow_flex_r	pro_sup_r	wrist_flex_r	wrist_dev_r	arm_flex_l	arm_add_l	arm_rot_l	elbow_flex_l	pro_sup_l	wrist_flex_l	wrist_dev_l
0.000000	-0.465158	-3.813557	96.881228	0.254720	0.982631	0.276790	1.794345	-1.322351	-16.869885	6.127363	0.106943	19.924297	12.230193	0.000000	1.408741	3.747701	7.748248	3.035513	0.052980	18.156196	-16.443047	0.000000	0.166466	-0.091505	0.488067	0.309143	-0.121702	0.518571	0.273486	-0.222486	0.518571	0.190254	-0.222486	0.427058	0.154580	-0.186598	0.396554	0.095118	-0.141742	0.366050	1.189047	-1.035128	2.714481	0.000000	0.000000	9.150846	-3.562085	-10.652579	5.564688	-10.780867	55.741972	52.184328	7.047832	-5.950629	7.825984	15.560313	-7.037176	68.591574	49.018603	80.235515	-5.266844	5.083787
0.016949	-0.215339	-3.513234	97.175509	0.254970	0.982664	0.274108	1.204763	-0.922305	-17.513011	5.878081	0.102592	20.094045	13.213525	0.000000	0.787521	3.360091	8.174261	2.677244	0.046727	18.270676	-16.412063	0.000000	0.156901	-0.067295	0.452903	0.291380	-0.089502	0.481210	0.257772	-0.163621	0.481210	0.179322	-0.163621	0.396290	0.145698	-0.137228	0.367984	0.089653	-0.104240	0.339677	1.120727	-0.761253	2.518912	0.000000	0.000000	8.923057	-3.542755	-10.764843	5.211111	-10.695120	55.812333	51.766607	9.195033	-4.770684	7.781018	14.270562	-7.493543	67.321816	49.591916	80.958393	-6.674518	3.248444
0.033898	-0.008894	-3.266695	97.394123	0.255218	0.982719	0.271984	0.738975	-0.599842	-18.059572	5.710878	0.099674	20.239765	14.034871	0.000000	0.279751	3.039324	8.521864	2.377077	0.041488	18.360651	-16.397955	0.000000	0.146387	-0.047316	0.415169	0.271856	-0.062931	0.441117	0.240500	-0.115045	0.441117	0.167306	-0.115045	0.363273	0.135935	-0.096488	0.337325	0.083646	-0.073293	0.311377	1.045629	-0.535253	2.309044	0.000000	0.000000	8.782688	-3.484581	-10.753906	4.973255	-10.592930	55.893165	51.414100	10.759633	-3.812546	7.826687	13.224198	-7.877876	66.221003	50.077601	81.238849	-7.739312	1.842572
0.050847	0.157988	-3.069449	97.543266	0.255461	0.982791	0.270369	0.385703	-0.348096	-18.517287	5.616985	0.098035	20.361497	14.708045	0.000000	-0.124180	2.779938	8.794725	2.131302	0.037198	18.429363	-16.396268	0.000000	0.135155	-0.031139	0.375824	0.250996	-0.041415	0.399313	0.222046	-0.075711	0.399313	0.154469	-0.075711	0.328846	0.125505	-0.063498	0.305357	0.077228	-0.048234	0.281868	0.965399	-0.352248	2.090222	0.000000	0.000000	8.720300	-3.394297	-10.635048	4.839180	-10.478339	55.983930	51.120700	11.809653	-3.054476	7.948702	12.401860	-8.195308	65.283387	50.480617	81.127593	-8.496707	0.819689
0.067797	0.289119	-2.917004	97.629137	0.255695	0.982878	0.269212	0.133671	-0.160203	-18.893870	5.587631	0.097523	20.459279	15.246861	0.000000	-0.433884	2.576468	8.996508	1.936204	0.033793	18.480057	-16.402548	0.000000	0.123434	-0.018331	0.335830	0.229230	-0.024380	0.356820	0.202791	-0.044569	0.356820	0.141073	-0.044569	0.293852	0.114621	-0.037380	0.272862	0.070530	-0.028394	0.251873	0.881680	-0.207359	1.867787	0.000000	0.000000	8.726454	-3.278633	-10.423546	4.796943	-10.355387	56.084089	50.880302	12.413113	-2.474732	8.132772	11.784191	-8.450970	64.503217	50.805923	80.675334	-8.982185	0.133311
0.084746	0.388308	-2.804868	97.657932	0.255919	0.982978	0.268462	-0.028399	-0.029297	-19.197039	5.614046	0.097984	20.533151	15.665132	0.000000	-0.658975	2.423450	9.130882	1.788071	0.031208	18.515973	-16.412341	0.000000	0.111456	-0.008460	0.296148	0.206984	-0.011252	0.314657	0.183111	-0.020570	0.314657	0.127383	-0.020570	0.259129	0.103498	-0.017252	0.240620	0.063686	-0.013105	0.222111	0.796117	-0.095704	1.647085	0.000000	0.000000	8.791708	-3.144323	-10.134681	4.834602	-10.228118	56.193104	50.686798	12.638033	-2.051576	8.364609	11.351831	-8.649995	63.874744	51.058479	79.932779	-9.231225	-0.263047
0.101695	0.459368	-2.728549	97.635848	0.256127	0.983087	0.268070	-0.111784	0.051487	-19.434509	5.687459	0.099265	20.583153	15.976672	0.000000	-0.809063	2.315421	9.201511	1.683192	0.029377	18.540356	-16.421193	0.000000	0.099449	-0.001096	0.257737	0.184687	-0.001458	0.273846	0.163385	-0.002666	0.273846	0.113660	-0.002666	0.225520	0.092348	-0.002236	0.209412	0.056825	-0.001698	0.193303	0.710354	-0.012403	1.433459	0.000000	0.000000	8.906624	-2.998098	-9.783730	4.940215	-10.100571	56.310436	50.534083	12.552435	-1.763267	8.629921	11.085421	-8.797516	63.392218	51.243244	78.950637	-9.279311	-0.415867
0.118644	0.506108	-2.683557	97.569082	0.256318	0.983203	0.267984	-0.127761	0.089014	-19.613997	5.799101	0.101213	20.609324	16.195295	0.000000	-0.893761	2.246917	9.212064	1.617852	0.028237	18.556448	-16.424650	0.000000	0.087644	0.004192	0.221560	0.162764	0.005576	0.235408	0.143991	0.010193	0.235408	0.100169	0.010193	0.193865	0.081386	0.008549	0.180018	0.050080	0.006494	0.166170	0.626034	0.047424	1.232251	0.000000	0.000000	9.061761	-2.846690	-9.385973	5.101841	-9.976788	56.435547	50.416048	12.224337	-1.588066	8.914418	10.965600	-8.898665	63.049891	51.365177	77.779618	-9.161922	-0.371632
0.135593	0.532341	-2.665398	97.463832	0.256488	0.983323	0.268154	-0.087608	0.090150	-19.743218	5.940201	0.103676	20.611704	16.334815	0.000000	-0.922681	2.212474	9.166205	1.588339	0.027722	18.567492	-16.418258	0.000000	0.076272	0.007837	0.188576	0.141645	0.010424	0.200363	0.125307	0.019055	0.200363	0.087171	0.019055	0.165004	0.070826	0.015982	0.153218	0.043582	0.012140	0.141432	0.544803	0.088656	1.048806	0.000000	0.000000	9.247680	-2.696832	-8.956688	5.307536	-9.860812	56.567897	50.326589	11.721762	-1.504233	9.203811	10.973011	-8.958575	62.842012	51.429238	76.470429	-8.914541	-0.176827
0.152542	0.541876	-2.669581	97.326295	0.256635	0.983444	0.268529	-0.002601	0.061759	-19.829890	6.101988	0.106500	20.590333	16.409045	0.000000	-0.905434	2.206629	9.067601	1.590941	0.027767	18.576731	-16.397562	0.000000	0.065562	0.010270	0.159747	0.121756	0.013659	0.169732	0.107712	0.024970	0.169732	0.074931	0.024970	0.139779	0.060881	0.020943	0.129795	0.037462	0.015908	0.119811	0.468304	0.116176	0.888467	0.000000	0.000000	9.454941	-2.555255	-8.511155	5.545360	-9.756683	56.706948	50.259598	11.112728	-1.490027	9.483810	11.088293	-8.982378	62.762831	51.440386	75.073778	-8.572649	0.122065
0.169492	0.538525	-2.691615	97.162667	0.256754	0.983563	0.269060	0.115983	0.010708	-19.881727	6.275693	0.109532	20.545250	16.431799	0.000000	-0.851634	2.223917	8.919920	1.621944	0.028308	18.587407	-16.358109	0.000000	0.055745	0.011922	0.136034	0.103524	0.015856	0.144536	0.091584	0.028987	0.144536	0.063711	0.028987	0.119029	0.051765	0.024311	0.110527	0.031853	0.018467	0.102025	0.398182	0.134862	0.756578	0.000000	0.000000	9.674104	-2.428693	-8.064653	5.803369	-9.668443	56.852161	50.208969	10.465257	-1.523709	9.740123	11.292088	-8.975206	62.806600	51.403582	73.640376	-8.171726	0.478561
